<?xml version="1.0" encoding="UTF-8" standalone="no"?>
<!-- Created with Inkscape (http://www.inkscape.org/) -->

<svg
   width="1000mm"
   height="1000mm"
   viewBox="0 0 1000 1000"
   version="1.1"
   id="svg545"
   inkscape:version="1.2.1 (9c6d41e, 2022-07-14)"
   sodipodi:docname="techsauna.svg"
   inkscape:export-filename="techsauna.png"
   inkscape:export-xdpi="25.4"
   inkscape:export-ydpi="25.4"
   xmlns:inkscape="http://www.inkscape.org/namespaces/inkscape"
   xmlns:sodipodi="http://sodipodi.sourceforge.net/DTD/sodipodi-0.dtd"
   xmlns="http://www.w3.org/2000/svg"
   xmlns:svg="http://www.w3.org/2000/svg">
  <sodipodi:namedview
     id="namedview547"
     pagecolor="#000000"
     bordercolor="#666666"
     borderopacity="1.0"
     inkscape:showpageshadow="2"
     inkscape:pageopacity="0"
     inkscape:pagecheckerboard="0"
     inkscape:deskcolor="#d1d1d1"
     inkscape:document-units="mm"
     showgrid="true"
     inkscape:zoom="0.14866305"
     inkscape:cx="753.38156"
     inkscape:cy="1789.2812"
     inkscape:window-width="1713"
     inkscape:window-height="926"
     inkscape:window-x="0"
     inkscape:window-y="38"
     inkscape:window-maximized="0"
     inkscape:current-layer="layer1">
    <inkscape:grid
       type="xygrid"
       id="grid819" />
  </sodipodi:namedview>
  <defs
     id="defs542" />
  <g
     inkscape:label="Layer 1"
     inkscape:groupmode="layer"
     id="layer1">
    <g
       aria-label="MUNICH TECH SAUNA"
       transform="rotate(-1.9956166,-23.549142,535.08159)"
       id="text1124"
       style="font-size:123.472px;line-height:1.25;stroke-width:0.264583;fill:#ffffff">
      <path
         d="m 194.22122,729.58829 c -3.73752,1.42242 -9.2515,2.72145 -18.39527,4.38624 l -35.31913,6.36878 c -4.65611,0.80938 -9.12859,1.94046 -18.83938,4.35539 1.66971,-0.81086 1.66971,-0.81086 7.53674,-3.73308 3.44666,-1.68293 11.67284,-5.95168 14.24645,-7.42063 l 23.37703,-13.34294 c 7.61362,-4.34564 11.81092,-6.457 17.11092,-8.62908 l -12.05761,-21.12511 c -3.92212,3.09165 -7.98184,5.69316 -16.13163,10.34482 l -55.868937,31.88841 c -7.184682,4.10081 -11.70369,6.39579 -17.218162,8.69028 L 98.88187,769.7884 c 4.87107,-1.92726 8.79221,-3.02798 17.38463,-4.66241 l 55.33759,-10.40197 -37.03695,42.46495 c -5.66971,6.50599 -8.61155,9.32246 -12.79417,12.70496 l 16.15842,28.30979 c 4.30504,-3.16803 9.80482,-6.73366 16.23887,-10.40603 l 55.86894,-31.8884 c 7.29191,-4.16202 11.91816,-6.51821 17.11093,-8.62908 L 215.09251,766.1551 c -4.13659,3.21406 -8.73248,6.1216 -16.13162,10.34483 l -23.26979,13.28173 c -5.68341,3.24393 -14.23178,8.69177 -20.62029,13.19116 1.19525,-1.39306 1.19525,-1.39306 4.38241,-4.77605 0.67425,-0.81136 8.81084,-9.72055 9.2858,-10.13381 l 22.89329,-26.14637 c 6.49722,-7.54699 9.79162,-10.99119 13.23878,-13.66958 z"
         style="font-family:'Hiragino Kaku Gothic Std';-inkscape-font-specification:'Hiragino Kaku Gothic Std';fill:#ffffff"
         id="path1285" />
      <path
         d="m 54.974769,627.33851 c 5.336406,-1.71564 9.059367,-2.6383 18.172616,-4.2826 l 41.799435,-7.54184 c 15.31025,-2.76242 23.85052,2.84822 26.48139,17.42941 2.56511,14.21667 -3.47583,22.45818 -18.78608,25.2206 l -41.799438,7.54184 c -8.991738,1.62237 -13.895985,2.25631 -18.523398,2.33843 l 4.735574,26.24616 c 4.485835,-1.56217 9.788427,-2.76985 18.172615,-4.2826 l 41.556417,-7.49799 c 13.60911,-2.45548 23.52276,-8.00817 29.78479,-16.41503 6.33969,-8.67181 8.37822,-21.71166 5.65965,-36.77889 -5.28367,-29.28391 -23.96204,-43.10259 -51.66631,-38.10392 l -41.799436,7.54184 c -8.748719,1.57852 -13.166926,2.12476 -18.523399,2.33843 z"
         style="font-family:'Hiragino Kaku Gothic Std';-inkscape-font-specification:'Hiragino Kaku Gothic Std';fill:#ffffff"
         id="path1287" />
      <path
         d="m 69.330043,521.54352 c -7.732705,3.83128 -12.986057,5.87422 -16.453277,6.65956 l -3.525357,26.56049 c 5.727809,0.0129 11.268236,0.49919 18.367352,1.44145 l 64.381639,8.54533 c 9.05749,1.2022 14.41054,2.16182 19.08661,3.5298 l 3.46037,-26.0709 c -5.36061,0.0358 -10.77864,-0.4342 -19.22414,-1.55517 l -27.41728,-3.63907 c -5.99753,-0.79605 -12.761939,-1.44478 -18.351104,-1.56385 6.942009,-2.56613 10.890144,-4.15953 16.224724,-6.81445 l 37.15469,-18.11113 c 6.91708,-3.31677 11.81948,-5.53084 16.76306,-7.11667 l 3.55784,-26.80528 c -5.22196,-0.0703 -10.90104,-0.45045 -18.36735,-1.44145 l -64.99363,-8.62656 c -7.955906,-1.05599 -13.064153,-1.98311 -18.474613,-3.44857 l -3.460373,26.0709 c 5.727808,0.0129 10.656242,0.41795 18.734547,1.49018 l 27.906869,3.70406 c 6.85432,0.90977 12.51715,1.41229 18.21246,1.67 -5.77544,2.22275 -10.00086,4.02845 -15.73513,6.87944 z"
         style="font-family:'Hiragino Kaku Gothic Std';-inkscape-font-specification:'Hiragino Kaku Gothic Std';fill:#ffffff"
         id="path1289" />
      <path
         d="m 73.632659,428.12994 c 5.361232,1.14935 8.812765,2.13384 17.522127,5.28059 l 62.242904,22.48876 c 7.78037,2.81109 12.5737,4.80552 16.85082,7.13858 l 9.23046,-25.54746 c -5.12898,-1.06543 -9.50951,-2.38558 -17.52212,-5.28059 L 99.713941,409.72106 c -8.477113,-3.06283 -12.341443,-4.72161 -16.850821,-7.13858 z"
         style="font-family:'Hiragino Kaku Gothic Std';-inkscape-font-specification:'Hiragino Kaku Gothic Std';fill:#ffffff"
         id="path1291" />
      <path
         d="m 170.38597,307.28599 c -7.02952,-2.49627 -12.01638,-3.13507 -18.40299,-2.46436 -13.36229,1.11922 -24.57483,8.82062 -33.00978,22.3317 -7.6503,12.25423 -10.37914,25.252 -7.87348,36.8598 3.0039,13.37443 12.30239,25.29292 26.54663,34.18558 14.03476,8.76189 29.03526,12.01324 41.72919,9.16674 12.18356,-2.72845 22.89845,-11.03165 30.87569,-23.80957 7.91186,-12.67318 10.27441,-25.31739 6.89209,-36.45358 -2.38585,-7.60293 -6.07945,-13.11111 -13.73974,-20.65903 l -16.84739,19.7583 c 4.00663,3.37468 5.64366,5.41559 7.04577,8.76541 2.29325,5.65286 1.629,12.07941 -1.96729,17.83995 -8.10802,12.98739 -23.31564,14.26459 -40.38778,3.60648 -17.28161,-10.7889 -22.69387,-24.5024 -14.71663,-37.28032 5.6233,-9.00738 13.80199,-11.61602 24.57542,-7.65579 z"
         style="font-family:'Hiragino Kaku Gothic Std';-inkscape-font-specification:'Hiragino Kaku Gothic Std';fill:#ffffff"
         id="path1293" />
      <path
         d="m 222.99189,214.90884 c 3.69587,3.1745 7.09706,6.76413 12.64065,13.23342 l 13.33673,15.5638 -31.59638,27.07519 -13.33674,-15.5638 c -4.98119,-5.81299 -7.92701,-9.63023 -11.14053,-14.51889 l -20.15793,17.27348 c 4.01725,3.54954 7.09707,6.76414 12.64065,13.23343 l 43.06321,50.25419 c 5.62392,6.56305 8.40905,10.19277 11.14052,14.51889 L 259.74,318.70507 c -4.17793,-3.73705 -7.41843,-7.13917 -12.64065,-13.23343 l -15.58631,-18.18901 31.59639,-27.07519 15.58631,18.18902 c 5.54358,6.46929 8.32872,10.09901 11.14052,14.51889 l 20.15794,-17.27349 c -4.4993,-4.11208 -7.41843,-7.13916 -12.64065,-13.23342 l -43.06321,-50.2542 c -5.62392,-6.56304 -8.40905,-10.19277 -11.14052,-14.51889 z"
         style="font-family:'Hiragino Kaku Gothic Std';-inkscape-font-specification:'Hiragino Kaku Gothic Std';fill:#ffffff"
         id="path1295" />
      <path
         d="m 385.99726,156.90869 13.33407,-4.10732 c 8.49605,-2.61706 13.17077,-3.79863 18.66254,-4.84428 l -6.94247,-22.53813 c -5.24629,2.26201 -9.89362,3.95193 -18.15366,6.49629 l -51.6843,15.92042 c -7.19804,2.21723 -13.79712,3.86236 -17.83653,4.58985 l 6.94246,22.53812 c 8.15996,-3.28871 10.12963,-4.02462 17.56367,-6.31455 l 13.92408,-4.28906 18.31939,59.47234 c 2.28992,7.43404 3.54419,12.34476 4.54454,18.10888 l 26.07815,-8.0329 c -2.41636,-5.32795 -4.25168,-10.44728 -6.43256,-17.52732 z"
         style="font-family:'Hiragino Kaku Gothic Std';-inkscape-font-specification:'Hiragino Kaku Gothic Std';fill:#ffffff"
         id="path1297" />
      <path
         d="m 527.21309,199.325 c -5.28608,0.79187 -10.70777,1.21759 -20.08656,1.52661 l -31.83849,1.04906 -0.68311,-20.73205 26.65549,-0.87828 c 8.51494,-0.28056 12.71885,-0.172 18.53921,0.25392 l -0.75223,-22.82993 c -7.3799,0.9844 -10.33756,1.20539 -18.48229,1.47375 l -26.65549,0.87828 -0.59771,-18.14054 32.0853,-1.05719 c 8.26814,-0.27243 12.71885,-0.172 18.41582,0.25799 l -0.76037,-23.07674 c -5.7797,0.80813 -9.96734,1.19319 -18.35888,1.46968 l -39.36621,1.29709 c -9.62559,0.31716 -13.085,0.30761 -18.15274,0.22751 0.93967,6.02245 1.3288,10.33349 1.5809,17.9846 l 2.22009,67.37915 c 0.28057,8.51495 0.1842,13.08906 -0.39358,18.04966 5.29828,-0.42165 8.74956,-0.65891 18.12834,-0.96793 l 38.87258,-1.28083 c 10.61284,-0.34968 15.06355,-0.24925 20.3903,0.19293 z"
         style="font-family:'Hiragino Kaku Gothic Std';-inkscape-font-specification:'Hiragino Kaku Gothic Std';fill:#ffffff"
         id="path1299" />
      <path
         d="m 646.01173,174.54974 c 0.20355,-7.45681 -0.72882,-12.3972 -3.33893,-18.26456 -5.19079,-12.36362 -15.97824,-20.64998 -31.4337,-24.50047 -14.01774,-3.49231 -27.22294,-2.07407 -37.48968,3.89362 -11.79318,6.98711 -20.2578,19.51159 -24.31723,35.80572 -3.99974,16.05451 -2.46003,31.3259 4.16723,42.52045 6.35739,10.74556 17.56354,18.37276 32.18034,22.01431 14.49698,3.6117 27.25278,1.95426 36.80025,-4.70161 6.4946,-4.61703 10.59301,-9.83104 15.40654,-19.44774 l -23.99512,-9.92265 c -1.97251,4.85292 -3.40815,7.04017 -6.16129,9.40818 -4.66844,3.92677 -10.98602,5.27951 -17.57556,3.63782 -14.85641,-3.70124 -20.76731,-17.77122 -15.90196,-37.30022 4.92505,-19.76861 16.29703,-29.15109 30.91382,-25.50954 10.30365,2.56699 15.31037,9.54042 14.87052,21.01024 z"
         style="font-family:'Hiragino Kaku Gothic Std';-inkscape-font-specification:'Hiragino Kaku Gothic Std';fill:#ffffff"
         id="path1301" />
      <path
         d="m 750.21627,196.0663 c -1.88255,4.49366 -4.25078,8.83474 -8.69928,16.10069 l -10.70218,17.48038 -35.48728,-21.72673 10.70218,-17.48038 c 3.9972,-6.52882 6.72218,-10.50671 10.38414,-15.06915 L 693.7736,161.50985 c -2.14044,4.91488 -4.25079,8.83474 -8.69928,16.10068 l -34.55645,56.44268 c -4.51297,7.37124 -7.10901,11.13853 -10.38414,15.06915 l 22.64025,13.86126 c 2.26938,-5.12548 4.50867,-9.25596 8.69928,-16.10068 l 12.50737,-20.42888 35.48728,21.72672 -12.50737,20.42888 c -4.4485,7.26594 -7.04453,11.03323 -10.38413,15.06915 l 22.64025,13.86126 c 2.52725,-5.5467 4.50866,-9.25596 8.69928,-16.10068 l 34.55645,-56.44268 c 4.51297,-7.37124 7.109,-11.13853 10.38413,-15.06915 z"
         style="font-family:'Hiragino Kaku Gothic Std';-inkscape-font-specification:'Hiragino Kaku Gothic Std';fill:#ffffff"
         id="path1303" />
      <path
         d="m 782.46119,316.38226 c -4.14243,3.98076 -6.10686,6.12247 -7.81625,8.83979 -4.25556,6.17621 -5.95975,12.96997 -5.22523,20.00746 0.7166,7.65458 4.8803,17.4103 10.93112,25.98556 8.32878,11.8036 17.51884,18.61712 27.29722,20.48205 7.81441,1.43735 15.97954,-0.69731 23.54595,-6.03628 9.28146,-6.54912 13.47808,-14.95047 12.89252,-25.41759 -0.28382,-5.54212 -1.98571,-11.59478 -5.78169,-20.40105 -5.97871,-13.61295 -5.97871,-13.61295 -6.49447,-16.27133 -0.76467,-4.29613 0.28613,-7.30432 3.11092,-9.29753 4.64073,-3.27456 11.17332,-1.08386 15.51568,5.07015 5.41015,7.66729 5.24894,13.22119 -0.45438,19.05891 l 17.41183,19.75043 c 4.82505,-5.36912 6.99738,-8.71533 8.54694,-13.58661 3.72236,-10.78677 0.75183,-23.34892 -8.28881,-36.16136 -14.02367,-19.87443 -32.63664,-25.47917 -48.17299,-14.5165 -8.17172,5.76608 -12.51071,13.96566 -12.46494,23.45363 0.0109,5.5836 1.07819,9.66616 5.60961,20.37135 4.98211,12.20055 6.05557,15.22098 6.54162,18.05144 0.64022,3.47725 -0.94471,7.01345 -4.07216,9.22022 -5.64958,3.98642 -12.35425,1.76602 -17.83558,-6.00215 -3.6305,-5.14516 -4.90526,-10.59251 -3.58717,-15.14935 0.94992,-2.937 2.26755,-4.92455 5.61468,-7.89079 z"
         style="font-family:'Hiragino Kaku Gothic Std';-inkscape-font-specification:'Hiragino Kaku Gothic Std';fill:#ffffff"
         id="path1305" />
      <path
         d="m 843.57851,507.77753 c 2.76468,-2.624 6.93252,-6.11102 12.38649,-10.4217 l 61.90203,-49.1019 c 5.41458,-4.4277 8.18151,-6.27079 11.29951,-8.23203 l -10.27867,-30.54303 c -3.59058,0.55696 -7.45571,0.68521 -13.89872,0.50851 l -78.95438,-1.5691 c -8.90274,-0.13058 -12.06573,-0.23862 -16.16715,-0.81251 l 9.21536,27.3834 c 4.52677,-0.87202 8.43016,-1.27369 13.62304,-1.32767 l 11.01028,-0.18784 11.22383,33.35158 -8.88365,6.50709 c -3.58497,2.50921 -6.39127,4.23528 -11.69333,7.06179 z m 29.09179,-53.30257 -7.4038,-22.00034 38.76944,-0.93142 z"
         style="font-family:'Hiragino Kaku Gothic Std';-inkscape-font-specification:'Hiragino Kaku Gothic Std';fill:#ffffff"
         id="path1307" />
      <path
         d="m 947.66098,582.30611 c -5.54565,0.81629 -9.36957,1.11525 -18.62912,1.24114 l -42.47044,0.57741 c -15.55604,0.2115 -23.05935,-6.72505 -23.26077,-21.54032 -0.19639,-14.44489 7.11557,-21.58285 22.67161,-21.79434 l 42.47044,-0.57742 c 9.13608,-0.12421 14.07786,0.0556 18.65598,0.73423 l -0.36257,-26.66749 c -4.68143,0.80455 -10.11034,1.12532 -18.62912,1.24114 l -42.22352,0.57406 c -13.82759,0.188 -24.5183,4.03784 -32.0755,11.30263 -7.67731,7.51338 -11.8289,20.04165 -11.62076,35.35076 0.40453,29.754 16.5609,46.45157 44.70991,46.06887 l 42.47045,-0.57741 c 8.88916,-0.12086 13.3371,0.0656 18.65597,0.73422 z"
         style="font-family:'Hiragino Kaku Gothic Std';-inkscape-font-specification:'Hiragino Kaku Gothic Std';fill:#ffffff"
         id="path1309" />
      <path
         d="m 916.19292,684.29635 c 8.25611,-2.51199 13.77326,-3.66622 17.32232,-3.87263 l 7.83121,-25.62342 c -5.64822,-0.95159 -11.03401,-2.33942 -17.88266,-4.43255 l -62.11023,-18.98258 c -8.73794,-2.67056 -13.86129,-4.49462 -18.24989,-6.61055 l -7.68686,25.1511 c 5.29398,0.84332 10.56169,2.19506 18.70923,4.68517 l 26.44998,8.08384 c 5.78593,1.76834 12.35252,3.51705 17.84658,4.55063 -7.26874,1.39356 -11.42465,2.31826 -17.12225,4.06289 l -39.62078,11.77614 c -7.36719,2.13812 -12.56619,3.51869 -17.70284,4.27277 l -7.90339,25.85958 c 5.13981,0.92532 10.67977,2.23115 17.88267,4.43256 l 62.70062,19.16302 c 7.67522,2.34576 12.56241,4.09764 17.65949,6.43011 l 7.68687,-25.1511 c -5.64823,-0.95159 -10.44362,-2.15898 -18.23691,-4.54082 l -26.92231,-8.22819 c -6.61249,-2.02096 -12.11636,-3.44488 -17.69241,-4.63263 6.06166,-1.24603 10.52591,-2.33472 16.64993,-4.20724 z"
         style="font-family:'Hiragino Kaku Gothic Std';-inkscape-font-specification:'Hiragino Kaku Gothic Std';fill:#ffffff"
         id="path1311" />
      <path
         d="m 753.21461,807.92531 c 3.75565,0.65104 9.04142,1.91236 15.75582,3.71361 l 76.34913,20.33883 c 6.78476,1.69978 9.91534,2.81889 13.3503,4.14907 l 18.36384,-26.48201 c -2.59065,-2.54775 -5.00132,-5.57171 -8.70657,-10.84567 l -45.88345,-64.27259 c -5.2109,-7.21957 -7.01279,-9.82137 -9.00131,-13.45412 l -16.46413,23.7425 c 3.40236,3.11062 6.05521,6.00201 9.19908,10.13542 l 6.72471,8.72008 -20.05247,28.91713 -10.52412,-3.24104 c -4.15336,-1.37759 -7.21357,-2.59815 -12.6467,-5.1637 z m 60.12846,-8.48906 13.22759,-19.07517 23.89566,30.54398 z"
         style="font-family:'Hiragino Kaku Gothic Std';-inkscape-font-specification:'Hiragino Kaku Gothic Std';fill:#ffffff"
         id="path1313" />
    </g>
    <g
       id="g841"
       transform="translate(8.9268095e-7,378.58272)"
       style="fill:#ffffff">
      <g
         id="g1408"
         transform="translate(-14.63274,-368.06231)"
         style="fill:#ffffff">
        <path
           d="m 330.50834,800.36281 c -1.9812,-2.9464 -3.0988,-4.9784 -3.6068,-6.35 h -11.0236 c 0.3048,2.3368 0.4064,4.6228 0.4064,7.5692 v 26.7208 c 0,3.7592 -0.1016,5.9944 -0.4064,7.9756 h 10.8204 c -0.3048,-2.1844 -0.4064,-4.4196 -0.4064,-7.9248 v -11.3792 c 0,-2.4892 -0.1016,-5.2832 -0.3556,-7.5692 1.4224,2.6924 2.286,4.2164 3.6576,6.2484 l 9.398,14.1732 c 1.7272,2.6416 2.8956,4.5212 3.81,6.4516 h 11.1252 c -0.254,-2.1336 -0.4064,-4.4704 -0.4064,-7.5692 v -26.9748 c 0,-3.302 0.1016,-5.4356 0.4064,-7.7216 h -10.8204 c 0.3048,2.3368 0.4064,4.3688 0.4064,7.7216 v 11.5824 c 0,2.8448 0.1016,5.1816 0.3048,7.5184 -1.2192,-2.2352 -2.1844,-3.8608 -3.6576,-6.0452 z"
           style="font-size:50.8px;line-height:1.25;font-family:'Hiragino Kaku Gothic StdN';-inkscape-font-specification:'Hiragino Kaku Gothic StdN';text-align:center;text-anchor:middle;stroke-width:0.264583;fill:#ffffff"
           id="path1343" />
        <path
           d="m 379.53027,793.09841 c -12.4968,0 -20.5232,8.5852 -20.5232,21.9964 0,13.462 8.0264,22.1488 20.4724,22.1488 12.3444,0 20.5232,-8.89 20.5232,-22.3012 0,-13.3096 -7.9756,-21.844 -20.4724,-21.844 z m 0,35.3568 c -6.1976,0 -10.0076,-5.1308 -10.0076,-13.4112 0,-8.1788 3.81,-13.208 10.0076,-13.208 6.1468,0 9.906,4.9784 9.906,13.208 0,8.3312 -3.7592,13.4112 -9.906,13.4112 z"
           style="font-size:50.8px;line-height:1.25;font-family:'Hiragino Kaku Gothic StdN';-inkscape-font-specification:'Hiragino Kaku Gothic StdN';text-align:center;text-anchor:middle;stroke-width:0.264583;fill:#ffffff"
           id="path1345" />
        <path
           d="m 443.33498,836.27841 c 8.8392,0 14.0208,-4.318 14.0208,-11.6332 0,-3.3528 -1.1176,-6.096 -3.302,-8.0264 -1.4732,-1.27 -2.794,-1.8796 -5.2832,-2.4384 2.0828,-0.762 2.9972,-1.27 4.1148,-2.2352 1.9304,-1.7272 2.9464,-4.1656 2.9464,-7.2644 0,-6.7056 -4.826,-10.668 -13.0556,-10.668 h -13.3096 c -4.1656,0 -4.8768,0 -7.4676,-0.1524 0.3048,2.4384 0.4064,4.6228 0.4064,7.3152 v 27.7876 c 0,3.556 -0.1016,5.2832 -0.4064,7.4676 2.1844,-0.1016 3.6576,-0.1524 7.5184,-0.1524 z m -10.9728,-25.9588 v -7.9756 h 8.8392 c 2.8956,0 4.4704,1.4224 4.4704,3.9116 0,2.4892 -1.6764,4.064 -4.3688,4.064 z m 0,8.128 h 9.2964 c 3.2512,0 5.1816,1.7272 5.1816,4.6736 0,2.9972 -1.9304,4.7752 -5.1308,4.7752 h -9.3472 z"
           style="font-size:50.8px;line-height:1.25;font-family:'Hiragino Kaku Gothic StdN';-inkscape-font-specification:'Hiragino Kaku Gothic StdN';text-align:center;text-anchor:middle;stroke-width:0.264583;fill:#ffffff"
           id="path1347" />
        <path
           d="m 490.37573,794.01281 c 0.3048,2.286 0.4064,3.8608 0.4064,7.6708 v 17.4752 c 0,6.4008 -2.8956,9.4488 -8.9916,9.4488 -5.9436,0 -8.8392,-3.048 -8.8392,-9.4488 v -17.4752 c 0,-3.7592 0.1016,-5.7912 0.4064,-7.6708 h -10.9728 c 0.3048,1.9304 0.4064,4.1656 0.4064,7.6708 v 17.3736 c 0,5.6896 1.524,10.1092 4.4704,13.2588 3.048,3.2004 8.1788,4.9784 14.478,4.9784 12.2428,0 19.2024,-6.5532 19.2024,-18.1356 v -17.4752 c 0,-3.6576 0.1016,-5.4864 0.4064,-7.6708 z"
           style="font-size:50.8px;line-height:1.25;font-family:'Hiragino Kaku Gothic StdN';-inkscape-font-specification:'Hiragino Kaku Gothic StdN';text-align:center;text-anchor:middle;stroke-width:0.264583;fill:#ffffff"
           id="path1349" />
        <path
           d="m 530.50769,836.27841 c 4.064,0 6.5532,0.1016 8.4328,0.3556 v -9.7536 c -2.3876,0.3048 -4.1148,0.3556 -8.4328,0.3556 h -12.2936 v -25.1968 c 0,-3.9624 0.0508,-5.3848 0.4064,-8.0264 h -11.0744 c 0.3048,2.4384 0.4064,4.6228 0.4064,8.1788 v 26.8224 c 0,3.4036 -0.1016,5.6388 -0.4064,7.4168 1.9304,-0.1016 4.0132,-0.1524 7.5184,-0.1524 z"
           style="font-size:50.8px;line-height:1.25;font-family:'Hiragino Kaku Gothic StdN';-inkscape-font-specification:'Hiragino Kaku Gothic StdN';text-align:center;text-anchor:middle;stroke-width:0.264583;fill:#ffffff"
           id="path1351" />
        <path
           d="m 565.35643,836.27841 c 4.064,0 6.5532,0.1016 8.4328,0.3556 v -9.7536 c -2.3876,0.3048 -4.1148,0.3556 -8.4328,0.3556 h -12.2936 v -25.1968 c 0,-3.9624 0.0508,-5.3848 0.4064,-8.0264 h -11.0744 c 0.3048,2.4384 0.4064,4.6228 0.4064,8.1788 v 26.8224 c 0,3.4036 -0.1016,5.6388 -0.4064,7.4168 1.9304,-0.1016 4.0132,-0.1524 7.5184,-0.1524 z"
           style="font-size:50.8px;line-height:1.25;font-family:'Hiragino Kaku Gothic StdN';-inkscape-font-specification:'Hiragino Kaku Gothic StdN';text-align:center;text-anchor:middle;stroke-width:0.264583;fill:#ffffff"
           id="path1353" />
        <path
           d="m 575.97357,823.52761 c 0.3556,2.3368 0.6096,3.5052 1.1176,4.7244 1.0668,2.8956 2.9464,5.08 5.4864,6.5024 2.7432,1.5748 7.0104,2.4892 11.3284,2.4892 5.9436,0 10.414,-1.4732 13.3604,-4.318 2.3368,-2.286 3.556,-5.5372 3.556,-9.3472 0,-4.6736 -1.8288,-8.0772 -5.4864,-10.3632 -1.9304,-1.2192 -4.3688,-2.0828 -8.2296,-2.8956 -5.9944,-1.2192 -5.9944,-1.2192 -7.0104,-1.6764 -1.6256,-0.762 -2.3876,-1.8288 -2.3876,-3.2512 0,-2.3368 2.286,-4.0132 5.3848,-4.0132 3.8608,0 5.6896,1.3716 6.2992,4.6736 l 10.7696,-1.1684 c -0.6604,-2.8956 -1.27,-4.4196 -2.54,-6.096 -2.7432,-3.81 -7.6708,-5.7912 -14.1224,-5.7912 -10.0076,0 -16.3068,4.9276 -16.3068,12.7508 0,4.1148 1.7272,7.5184 4.9276,9.7536 1.8796,1.3208 3.5052,1.9304 8.1788,2.9464 5.2832,1.2192 6.5532,1.5748 7.62,2.0828 1.3208,0.6096 2.1336,1.9812 2.1336,3.556 0,2.8448 -2.3368,4.572 -6.2484,4.572 -2.5908,0 -4.7244,-0.8636 -5.9436,-2.3876 -0.762,-1.016 -1.1176,-1.9304 -1.3208,-3.7592 z"
           style="font-size:50.8px;line-height:1.25;font-family:'Hiragino Kaku Gothic StdN';-inkscape-font-specification:'Hiragino Kaku Gothic StdN';text-align:center;text-anchor:middle;stroke-width:0.264583;fill:#ffffff"
           id="path1355" />
        <path
           d="m 643.28356,794.01281 c 0.3048,1.9812 0.4064,4.0132 0.4064,7.5184 v 8.4328 h -17.1196 v -8.4328 c 0,-3.1496 0.1016,-5.1308 0.4064,-7.5184 h -10.922 c 0.3048,2.1844 0.4064,4.0132 0.4064,7.5184 v 27.2288 c 0,3.556 -0.1016,5.4356 -0.4064,7.5184 h 10.922 c -0.3048,-2.286 -0.4064,-4.2164 -0.4064,-7.5184 v -9.8552 h 17.1196 v 9.8552 c 0,3.5052 -0.1016,5.3848 -0.4064,7.5184 h 10.922 c -0.3048,-2.4892 -0.4064,-4.2164 -0.4064,-7.5184 v -27.2288 c 0,-3.556 0.1016,-5.4356 0.4064,-7.5184 z"
           style="font-size:50.8px;line-height:1.25;font-family:'Hiragino Kaku Gothic StdN';-inkscape-font-specification:'Hiragino Kaku Gothic StdN';text-align:center;text-anchor:middle;stroke-width:0.264583;fill:#ffffff"
           id="path1357" />
        <path
           d="m 660.55555,794.01281 c 0.3048,2.2352 0.4064,3.7084 0.4064,7.5184 v 27.2288 c 0,3.4036 -0.1016,5.5372 -0.4064,7.5184 h 11.176 c -0.3048,-2.1336 -0.4064,-4.0132 -0.4064,-7.5184 v -27.2288 c 0,-3.7084 0.1016,-5.4356 0.4064,-7.5184 z"
           style="font-size:50.8px;line-height:1.25;font-family:'Hiragino Kaku Gothic StdN';-inkscape-font-specification:'Hiragino Kaku Gothic StdN';text-align:center;text-anchor:middle;stroke-width:0.264583;fill:#ffffff"
           id="path1359" />
        <path
           d="m 699.72234,803.00441 h 5.7404 c 3.6576,0 5.6388,0.1016 7.9248,0.3556 v -9.7028 c -2.3368,0.254 -4.3688,0.3556 -7.9248,0.3556 h -22.2504 c -3.0988,0 -5.8928,-0.1524 -7.5692,-0.3556 v 9.7028 c 3.6068,-0.3048 4.4704,-0.3556 7.6708,-0.3556 h 5.9944 v 25.6032 c 0,3.2004 -0.1016,5.2832 -0.4064,7.6708 h 11.2268 c -0.3048,-2.3876 -0.4064,-4.6228 -0.4064,-7.6708 z"
           style="font-size:50.8px;line-height:1.25;font-family:'Hiragino Kaku Gothic StdN';-inkscape-font-specification:'Hiragino Kaku Gothic StdN';text-align:center;text-anchor:middle;stroke-width:0.264583;fill:#ffffff"
           id="path1361" />
      </g>
      <g
         id="g1418"
         transform="translate(-13.33734,-383.35323)"
         style="fill:#ffffff">
        <path
           d="m 367.56701,862.22043 c 0.3048,2.3368 0.4064,3.9116 0.4064,8.2296 v 21.1328 c 0,3.5052 -1.5748,5.1816 -4.9784,5.1816 -3.2512,0 -4.7752,-1.4224 -5.842,-5.3848 l -9.906,3.4036 c 1.1684,3.048 1.8796,4.318 3.3528,5.9436 2.8448,3.1496 7.0104,4.7244 12.5476,4.7244 4.9784,0 9.0932,-1.4732 11.684,-4.1148 2.3876,-2.3876 3.5052,-5.588 3.5052,-9.7536 v -21.1836 c 0,-4.4196 0.0508,-5.9436 0.4064,-8.1788 z"
           style="font-size:50.8px;line-height:1.25;font-family:'Hiragino Kaku Gothic StdN';-inkscape-font-specification:'Hiragino Kaku Gothic StdN';text-align:center;text-anchor:middle;stroke-width:0.264583;fill:#ffffff"
           id="path1363" />
        <path
           d="m 412.93133,862.22043 c 0.3048,2.286 0.4064,3.8608 0.4064,7.6708 v 17.4752 c 0,6.4008 -2.8956,9.4488 -8.9916,9.4488 -5.9436,0 -8.8392,-3.048 -8.8392,-9.4488 v -17.4752 c 0,-3.7592 0.1016,-5.7912 0.4064,-7.6708 h -10.9728 c 0.3048,1.9304 0.4064,4.1656 0.4064,7.6708 v 17.3736 c 0,5.6896 1.524,10.1092 4.4704,13.2588 3.048,3.2004 8.1788,4.9784 14.478,4.9784 12.2428,0 19.2024,-6.5532 19.2024,-18.1356 v -17.4752 c 0,-3.6576 0.1016,-5.4864 0.4064,-7.6708 z"
           style="font-size:50.8px;line-height:1.25;font-family:'Hiragino Kaku Gothic StdN';-inkscape-font-specification:'Hiragino Kaku Gothic StdN';text-align:center;text-anchor:middle;stroke-width:0.264583;fill:#ffffff"
           id="path1365" />
        <path
           d="m 428.83169,891.73523 c 0.3556,2.3368 0.6096,3.5052 1.1176,4.7244 1.0668,2.8956 2.9464,5.08 5.4864,6.5024 2.7432,1.5748 7.0104,2.4892 11.3284,2.4892 5.9436,0 10.414,-1.4732 13.3604,-4.318 2.3368,-2.286 3.556,-5.5372 3.556,-9.3472 0,-4.6736 -1.8288,-8.0772 -5.4864,-10.3632 -1.9304,-1.2192 -4.3688,-2.0828 -8.2296,-2.8956 -5.9944,-1.2192 -5.9944,-1.2192 -7.0104,-1.6764 -1.6256,-0.762 -2.3876,-1.8288 -2.3876,-3.2512 0,-2.3368 2.286,-4.0132 5.3848,-4.0132 3.8608,0 5.6896,1.3716 6.2992,4.6736 l 10.7696,-1.1684 c -0.6604,-2.8956 -1.27,-4.4196 -2.54,-6.096 -2.7432,-3.81 -7.6708,-5.7912 -14.1224,-5.7912 -10.0076,0 -16.3068,4.9276 -16.3068,12.7508 0,4.1148 1.7272,7.5184 4.9276,9.7536 1.8796,1.3208 3.5052,1.9304 8.1788,2.9464 5.2832,1.2192 6.5532,1.5748 7.62,2.0828 1.3208,0.6096 2.1336,1.9812 2.1336,3.556 0,2.8448 -2.3368,4.572 -6.2484,4.572 -2.5908,0 -4.7244,-0.8636 -5.9436,-2.3876 -0.762,-1.016 -1.1176,-1.9304 -1.3208,-3.7592 z"
           style="font-size:50.8px;line-height:1.25;font-family:'Hiragino Kaku Gothic StdN';-inkscape-font-specification:'Hiragino Kaku Gothic StdN';text-align:center;text-anchor:middle;stroke-width:0.264583;fill:#ffffff"
           id="path1367" />
        <path
           d="m 490.60447,871.21203 h 5.7404 c 3.6576,0 5.6388,0.1016 7.9248,0.3556 v -9.7028 c -2.3368,0.254 -4.3688,0.3556 -7.9248,0.3556 h -22.2504 c -3.0988,0 -5.8928,-0.1524 -7.5692,-0.3556 v 9.7028 c 3.6068,-0.3048 4.4704,-0.3556 7.6708,-0.3556 h 5.9944 v 25.6032 c 0,3.2004 -0.1016,5.2832 -0.4064,7.6708 h 11.2268 c -0.3048,-2.3876 -0.4064,-4.6228 -0.4064,-7.6708 z"
           style="font-size:50.8px;line-height:1.25;font-family:'Hiragino Kaku Gothic StdN';-inkscape-font-specification:'Hiragino Kaku Gothic StdN';text-align:center;text-anchor:middle;stroke-width:0.264583;fill:#ffffff"
           id="path1369" />
        <path
           d="m 546.78912,871.21203 h 5.7404 c 3.6576,0 5.6388,0.1016 7.9248,0.3556 v -9.7028 c -2.3368,0.254 -4.3688,0.3556 -7.9248,0.3556 h -22.2504 c -3.0988,0 -5.8928,-0.1524 -7.5692,-0.3556 v 9.7028 c 3.6068,-0.3048 4.4704,-0.3556 7.6708,-0.3556 h 5.9944 v 25.6032 c 0,3.2004 -0.1016,5.2832 -0.4064,7.6708 h 11.2268 c -0.3048,-2.3876 -0.4064,-4.6228 -0.4064,-7.6708 z"
           style="font-size:50.8px;line-height:1.25;font-family:'Hiragino Kaku Gothic StdN';-inkscape-font-specification:'Hiragino Kaku Gothic StdN';text-align:center;text-anchor:middle;stroke-width:0.264583;fill:#ffffff"
           id="path1371" />
        <path
           d="m 600.99257,904.48603 c -0.6604,-1.4224 -1.4732,-3.5052 -2.4384,-6.1976 l -11.0236,-30.5816 c -1.016,-2.6924 -1.3716,-4.0132 -1.7272,-5.4864 h -13.2588 c -0.254,1.4732 -0.7112,2.9972 -1.6256,5.4864 l -10.9728,30.5816 c -1.2192,3.4544 -1.6764,4.6736 -2.4384,6.1976 h 11.8872 c 0.254,-1.8796 0.6096,-3.4544 1.27,-5.4864 l 1.3716,-4.318 h 14.478 l 1.3716,4.318 c 0.508,1.7272 0.8128,3.048 1.2192,5.4864 z m -16.9672,-18.3388 h -9.5504 l 4.7244,-15.24 z"
           style="font-size:50.8px;line-height:1.25;font-family:'Hiragino Kaku Gothic StdN';-inkscape-font-specification:'Hiragino Kaku Gothic StdN';text-align:center;text-anchor:middle;stroke-width:0.264583;fill:#ffffff"
           id="path1373" />
        <path
           d="m 627.45931,904.48603 c 4.064,0 6.5532,0.1016 8.4328,0.3556 v -9.7536 c -2.3876,0.3048 -4.1148,0.3556 -8.4328,0.3556 h -12.2936 v -25.1968 c 0,-3.9624 0.0508,-5.3848 0.4064,-8.0264 h -11.0744 c 0.3048,2.4384 0.4064,4.6228 0.4064,8.1788 v 26.8224 c 0,3.4036 -0.1016,5.6388 -0.4064,7.4168 1.9304,-0.1016 4.0132,-0.1524 7.5184,-0.1524 z"
           style="font-size:50.8px;line-height:1.25;font-family:'Hiragino Kaku Gothic StdN';-inkscape-font-specification:'Hiragino Kaku Gothic StdN';text-align:center;text-anchor:middle;stroke-width:0.264583;fill:#ffffff"
           id="path1375" />
        <path
           d="m 661.80007,878.93363 10.6172,-11.1252 c 0.9144,-0.9144 0.9144,-0.9144 3.556,-3.556 0.7112,-0.7112 1.0668,-1.1176 1.9812,-2.032 h -13.716 c -1.1176,1.8796 -2.4384,3.6068 -4.4196,5.6896 l -10.1092,10.8204 v -8.9916 c 0,-3.2004 0.1016,-4.8768 0.4064,-7.5184 h -10.7696 c 0.3048,2.4384 0.4064,4.4196 0.4064,7.5184 v 27.2288 c 0,3.048 -0.1016,4.9276 -0.4064,7.5184 h 10.7696 c -0.3048,-2.6924 -0.4064,-4.3688 -0.4064,-7.5184 v -6.4008 l 5.1308,-5.1308 7.874,12.5984 c 1.3208,2.1336 2.794,4.826 3.5052,6.4516 h 13.208 c -1.7272,-2.1336 -2.3876,-3.048 -5.3848,-7.5184 z"
           style="font-size:50.8px;line-height:1.25;font-family:'Hiragino Kaku Gothic StdN';-inkscape-font-specification:'Hiragino Kaku Gothic StdN';text-align:center;text-anchor:middle;stroke-width:0.264583;fill:#ffffff"
           id="path1377" />
      </g>
    </g>
    <path
       id="path1552"
       style="fill:#ffffff;fill-opacity:1;fill-rule:nonzero;stroke:none;stroke-width:0.486285;stroke-dasharray:none;stroke-opacity:1"
       d="m 501.39566,240.54397 c -25.73264,0 -47.47453,23.42691 -47.47453,51.15756 0,9.26232 2.75072,18.60184 7.96252,27.00916 7.31596,11.79957 9.96563,25.84517 7.46088,39.55227 -5.40049,29.60405 -15.54809,46.51775 -21.11673,53.96854 -1.57284,2.09945 -3.98141,3.36941 -6.6091,3.4749 -39.78792,1.62672 -74.10251,4.79312 -99.2237,9.15064 -37.86535,6.56564 -42.96881,13.8339 -42.96881,20.07593 0,0.23809 0.0331,0.48039 0.0497,0.72071 0.003,0.0917 0.008,0.18393 0.0162,0.27643 l 0.014,0.16435 c 0.0107,0.0914 0.01,0.18164 0.0231,0.27341 l 4.3077,50.3881 c -1.09336,2.02166 -1.93103,6.0369 -1.44747,14.85804 0.58879,10.85523 2.50485,15.74096 4.26248,18.0696 l 10.56386,123.43661 c -0.61476,1.89457 -0.70978,4.95937 -0.35528,10.80404 0.31248,5.11737 0.93804,10.90731 1.60824,14.75801 0.30412,1.74787 0.63295,3.61737 1.37064,5.16807 l 2.42851,28.33482 c 0.20463,7.92267 10.28541,13.67084 32.60442,18.60571 18.53971,4.10217 44.43944,7.32307 74.91043,9.32094 0.10864,0.01 0.21776,0.01 0.33428,0.01 h 4.8e-4 c 2.6063,0 4.80391,-2.02707 4.97917,-4.66897 0.17448,-2.75217 -1.90711,-5.13267 -4.65851,-5.31037 -18.02512,-1.1826 -34.45396,-2.80537 -48.62557,-4.78207 l -1.59618,-27.87695 c 15.13571,1.6345 32.26977,2.9604 50.95195,3.92267 l 0.34634,11.88914 c 0.08,2.7078 2.30032,4.84797 4.99375,4.84797 h 0.14569 c 2.7586,-0.081 4.92772,-2.38417 4.847,-5.14347 l -0.32824,-11.11924 c 1.32571,0.057 2.65161,0.1145 3.99113,0.1684 0.0651,0 0.13003,0 0.20298,0 v 5e-4 c 2.66416,0 4.87685,-2.10677 4.98626,-4.79317 0.10952,-2.75937 -2.03121,-5.08457 -4.78971,-5.19327 -53.07313,-2.13267 -96.42795,-7.28354 -117.04254,-13.85631 -0.76375,-3.63967 -1.57974,-11.60384 -1.81928,-17.03761 10.70536,3.22377 26.35868,6.07317 45.62246,8.39964 0.23711,0.049 0.48055,0.076 0.72778,0.09 25.46138,3.043 57.15665,5.17557 92.10001,6.05167 h 0.13169 c 2.70063,0 4.91955,-2.15507 4.98568,-4.87007 0.0729,-2.75847 -2.10357,-5.05097 -4.86207,-5.12087 -8.63428,-0.2164 -17.08746,-0.5156 -25.3154,-0.8865 l -3.37443,-115.22521 c 18.80658,0.83072 38.88431,1.28466 59.67746,1.35046 v 85.46953 c 0,2.75937 2.24216,4.99727 5.00076,4.99727 2.7585,0 4.99278,-2.2379 4.99278,-4.99727 v -85.46702 c 20.53707,-0.0659 40.60702,-0.53765 59.70051,-1.39116 l -0.9785,33.53829 c -0.0801,2.75856 2.08898,5.05966 4.84748,5.13896 h 0.15231 c 2.68711,0 4.90739,-2.1397 4.98714,-4.84746 l 1.00068,-34.30776 c 13.01045,-0.68624 25.51526,-1.54652 37.27353,-2.59085 2.7515,-0.24349 4.78242,-2.67226 4.5349,-5.41891 -0.2411,-2.74825 -2.66406,-4.77961 -5.41546,-4.53135 -32.74166,2.90766 -71.16224,4.4434 -111.09537,4.4434 -51.14141,0 -98.69657,-2.54179 -134.00591,-6.78044 -0.41324,-0.10768 -0.84711,-0.15914 -1.29264,-0.1553 -23.97569,-2.9312 -42.16041,-6.65333 -51.74859,-10.89815 -1.34594,-2.75538 -2.21318,-11.5421 -2.11786,-17.25589 10.56171,4.1379 28.33222,7.75648 51.16961,10.64031 0.33914,0.0801 0.69082,0.12489 1.05086,0.13167 18.83693,2.34408 41.10673,4.177 65.58339,5.40384 0.23877,0.0351 0.48279,0.0538 0.73079,0.0538 0.0508,0 0.1027,-0.004 0.15231,-0.004 0.0214,-6.2e-4 0.0425,-0.003 0.0638,-0.004 21.9792,1.08481 45.68422,1.6887 70.41424,1.6887 51.74032,0 100.15707,-2.53442 137.23406,-7.15285 0.16339,-0.0127 0.32464,-0.0337 0.48346,-0.0619 1.67953,-0.2106 3.36713,-0.41961 4.99881,-0.63878 2.72923,-0.36722 4.65122,-2.8801 4.28709,-5.61645 -0.33456,-2.46952 -2.41713,-4.27508 -4.83445,-4.32427 l 2.22602,-38.7818 c 24.01722,-3.29797 38.29999,-6.88262 46.55176,-10.51015 -0.21922,2.73747 1.81471,5.14376 4.55094,5.38022 0.14589,0.0115 0.29109,0.0186 0.4363,0.0186 2.56262,0 4.74633,-1.96659 4.97158,-4.57206 l 0.96051,-11.19417 c 0.0122,-0.083 0.0112,-0.1645 0.0211,-0.24728 l 0.016,-0.18646 c 0.008,-0.0882 0.0122,-0.17639 0.0151,-0.26386 0.0173,-0.24455 0.0508,-0.49104 0.0508,-0.73328 0,-6.24203 -5.10317,-13.51028 -42.96939,-20.07593 -25.12128,-4.35752 -59.435,-7.52391 -99.23022,-9.15063 -2.62049,-0.1055 -5.03081,-1.37546 -6.60199,-3.47491 -5.56943,-7.45079 -15.71605,-24.36845 -21.11731,-53.96854 -2.50398,-13.7071 0.14472,-27.75508 7.46145,-39.55227 5.20384,-8.41049 7.96253,-17.75001 7.96253,-27.00916 0,-27.73064 -21.74296,-51.15756 -47.47414,-51.15756 z m 0,9.98946 c 20.31639,0 37.47962,18.85382 37.47962,41.1681 0,7.39922 -2.23418,14.91837 -6.4633,21.74654 -8.61824,13.90696 -11.74806,30.45995 -8.80089,46.60913 5.7725,31.60594 16.85133,50.0006 22.94429,58.15411 3.38512,4.52328 8.56046,7.24931 14.20214,7.47852 37.04372,1.51491 69.47279,4.39324 93.79929,8.32087 28.99327,4.68034 36.54168,9.28458 38.38421,10.90418 -2.24303,1.89561 -12.82586,8.22887 -57.79077,13.64128 -36.38062,4.38131 -83.88491,6.794 -133.75459,6.794 -49.86958,0 -97.37456,-2.41269 -133.76315,-6.794 -44.96317,-5.41241 -55.54045,-11.74567 -57.7827,-13.64128 1.83455,-1.6196 9.38276,-6.22384 38.38333,-10.90418 24.31998,-3.92763 56.75664,-6.80596 93.79317,-8.32087 19.12976,-0.78283 39.10382,-1.17957 59.36935,-1.17957 2.7585,0 4.99278,-2.23418 4.99278,-4.99272 0,-2.76252 -2.23428,-4.99776 -4.99278,-4.99776 -14.54498,0 -28.93687,0.205 -42.9834,0.60663 6.28922,-9.29002 15.62744,-26.92981 20.75989,-55.06921 2.94815,-16.14918 -0.17497,-32.70217 -8.7933,-46.60913 -4.22902,-6.82817 -6.46428,-14.34335 -6.46428,-21.74654 0,-22.31428 17.16479,-41.1681 37.48109,-41.1681 z m 0,21.44198 c -9.92858,0 -18.0012,8.84737 -18.0012,19.72612 0,10.87875 8.07262,19.73065 18.0012,19.73065 9.92138,0 17.99477,-8.8519 17.99477,-19.73065 0,-10.87875 -8.07339,-19.72612 -17.99477,-19.72612 z m 0,9.98946 c 4.41148,0 8.00677,4.36788 8.00677,9.73666 0,5.37116 -3.59529,9.74018 -8.00677,9.74018 -4.41858,0 -8.00727,-4.36902 -8.00727,-9.74018 0,-5.36878 3.58869,-9.73666 8.00727,-9.73666 z m 255.32901,146.69325 c -4.76257,5e-4 -9.52476,1.81408 -13.14982,5.43953 L 595.49343,582.17554 c -5.77959,5.78274 -11.9735,11.28541 -18.40121,16.35518 l -52.54581,41.43726 c -11.27334,7.32517 -23.43153,17.27731 -35.30739,29.15305 -29.83717,29.84022 -52.70122,67.38741 -38.67375,81.42202 0.0167,0.017 0.0345,0.032 0.0513,0.048 1.78184,1.9515 22.61263,24.03668 53.82133,24.88655 0.61865,0.018 1.23049,0.025 1.84195,0.025 20.89857,0 41.2209,-9.72484 60.41729,-28.92432 37.30631,-37.30529 40.83674,-73.33048 43.42076,-99.63733 1.62361,-16.58841 2.91275,-29.69125 11.42779,-38.21109 L 769.87537,460.40062 c 7.24934,-7.25329 7.24934,-19.0529 0,-26.30301 -3.62545,-3.62743 -8.38822,-5.44002 -13.1507,-5.43952 z m -0.003,9.98746 c 2.20471,0 4.4104,0.83847 6.09188,2.51596 3.35575,3.35658 3.35575,8.81491 0,12.17071 L 614.48548,601.66129 c -11.05005,11.05324 -12.56424,26.46375 -14.31078,44.30456 -2.5706,26.18785 -5.76617,58.77327 -40.53836,93.54846 -17.71876,17.71311 -36.17794,26.43445 -54.81996,25.97915 -14.4163,-0.3668 -26.4999,-6.23634 -34.81984,-11.79671 16.53271,-4.0799 39.76108,-19.59261 61.99334,-41.82469 29.83727,-29.83712 52.70102,-67.38671 38.67433,-81.42202 -2.81004,-2.8054 -6.68243,-4.22827 -11.52291,-4.22827 -0.35012,0 -0.71202,0.018 -1.07206,0.033 l 25.20939,-19.87981 c 6.73379,-5.31007 13.22005,-11.07581 19.28285,-17.13618 L 750.63541,441.16153 c 1.67749,-1.67749 3.88163,-2.51596 6.08635,-2.51596 z m -446.28229,18.08316 c 8.25022,3.62834 22.53415,7.21398 46.55993,10.51266 l 2.21639,38.72753 c -22.06877,-3.01782 -37.61063,-6.61204 -45.43758,-10.24729 z m 56.64032,11.81889 c 17.08543,2.04198 36.47711,3.65553 57.40778,4.79572 l 1.13333,38.56116 c -21.38486,-1.14798 -40.27936,-2.75059 -56.31966,-4.65046 z m 268.63047,0 -2.21941,38.67576 c -16.79462,1.98227 -35.79465,3.54937 -56.31567,4.65649 l 1.12127,-38.53604 c 20.93281,-1.14018 40.32722,-2.75412 57.41381,-4.79621 z m -201.21359,5.30282 c 19.65262,0.9096 40.49625,1.40782 61.89784,1.47611 v 38.48527 c -21.83973,-0.0671 -42.16605,-0.56898 -60.77102,-1.41277 z m 133.79681,0 -1.12031,38.52448 c -19.27925,0.88123 -39.72509,1.36841 -60.78512,1.4354 v -38.48377 c 21.40237,-0.0682 42.24911,-0.56632 61.90543,-1.47611 z m -251.17158,60.97514 c 10.39959,3.33376 25.54299,6.27119 44.24998,8.69631 l 6.62116,115.41976 c -17.78655,-2.32047 -31.91556,-5.09287 -40.952,-8.15294 z m 54.33242,9.91258 c 16.35609,1.84267 35.01727,3.31255 55.25217,4.37001 l 3.3754,115.23525 c -19.02648,-1.02037 -36.61657,-2.44087 -52.00593,-4.17597 z m 316.51921,15.69335 c -2.53287,0.0368 -4.67135,1.99609 -4.88921,4.57255 l -7.34232,85.79315 c -8.94326,3.03437 -22.91043,5.81737 -40.95296,8.17554 l 2.11592,-36.81999 c 0.15231,-2.75617 -1.95107,-5.11387 -4.70325,-5.27417 -2.7586,-0.1633 -5.1164,1.9469 -5.27668,4.7023 l -2.21288,38.61766 c -0.23838,0.027 -0.46723,0.055 -0.70667,0.082 -2.73711,0.3062 -4.71667,2.7777 -4.40263,5.51797 0.30461,2.7403 2.75762,4.71597 5.5169,4.41067 1.6202,-0.181 3.20734,-0.3666 4.77707,-0.5544 0.11797,-0.01 0.23468,-0.024 0.35032,-0.043 19.60438,-2.35657 35.21743,-5.23267 45.84868,-8.43984 -0.23322,5.45677 -1.04765,13.46254 -1.81228,17.09191 -10.28288,3.26097 -26.28311,6.19887 -46.79159,8.60324 -0.13461,0.01 -0.26756,0.026 -0.39905,0.047 -2.91528,0.3399 -5.91906,0.6694 -9.01193,0.9871 -2.7443,0.2808 -4.73855,2.7365 -4.45544,5.48077 0.2626,2.5697 2.43182,4.48407 4.96507,4.48407 0.1666,0 0.34186,-0.01 0.51711,-0.025 1.17263,-0.1205 2.31705,-0.2455 3.46585,-0.3694 l -1.60221,27.88995 c -6.55113,0.9143 -13.89218,1.7952 -22.13607,2.61447 -2.74508,0.2728 -4.74702,2.7229 -4.47655,5.46717 0.26094,2.5769 2.42987,4.5022 4.9711,4.5022 h 0.003 c 0.1594,0 0.32639,-0.01 0.49455,-0.026 9.52379,-0.9475 18.39012,-2.0362 26.48142,-3.2387 0.10931,-0.013 0.21756,-0.029 0.32474,-0.048 11.53526,-1.72317 21.4685,-3.68047 29.35322,-5.80787 16.77099,-4.52727 24.36316,-9.67094 24.53687,-16.64421 l 2.41946,-28.22822 c 0.7479,-1.546 1.08023,-3.4115 1.38562,-5.15707 0.66942,-3.8364 1.30343,-9.65194 1.60882,-14.82481 0.34478,-5.85747 0.24849,-8.93517 -0.36384,-10.83624 l 7.46798,-87.27978 c 0.23322,-2.75142 -1.80558,-5.17116 -4.55698,-5.40434 -0.17195,-0.015 -0.34234,-0.0216 -0.51118,-0.0191 z m -128.83223,75.78069 c 2.0883,0 3.5883,0.441 4.45447,1.3032 5.83114,5.83424 -6.32559,34.95109 -38.67472,67.29131 -27.45701,27.46475 -51.82046,39.97416 -62.83326,39.97416 -2.08917,0 -3.58926,-0.4411 -4.45543,-1.30317 -5.83834,-5.83357 6.33269,-34.94712 38.67472,-67.29134 11.86447,-11.86474 23.14589,-20.93268 33.02516,-27.41255 0.30908,-0.1526 0.60785,-0.3361 0.88912,-0.55837 l 0.13062,-0.103 c 12.52154,-8.06587 22.69792,-11.90024 28.78932,-11.90024 z m -228.81978,52.9263 c 10.04936,2.72327 23.54707,5.14387 39.82167,7.17594 l 1.57507,27.51465 c -4.10726,-0.6783 -7.98363,-1.3884 -11.58311,-2.13097 -23.52626,-4.85477 -27.4287,-9.36387 -27.88717,-10.04124 -0.005,-0.047 -0.005,-0.098 -0.0146,-0.1482 z m 342.14175,0.054 -1.91091,22.31638 c 0,0.054 -0.01,0.1116 -0.01,0.1663 -1.22602,2.14787 -10.70469,7.38414 -39.47087,12.14951 l 1.57663,-27.51905 c 16.38041,-2.03897 29.86801,-4.44627 39.81516,-7.11314 z" />
  </g>
</svg>
